<?xml version="1.0" encoding="UTF-8"?>
<!DOCTYPE svg PUBLIC "-//W3C//DTD SVG 1.0//EN" "http://www.w3.org/TR/2001/REC-SVG-20010904/DTD/svg10.dtd"><svg contentScriptType="text/ecmascript" width="450" xmlns:xlink="http://www.w3.org/1999/xlink" zoomAndPan="magnify" contentStyleType="text/css" height="800" preserveAspectRatio="xMidYMid meet" xmlns="http://www.w3.org/2000/svg" version="1.0"><text x="20" y="70" style="font-size:14px;fill:black;font-family:Arial" text-anchor="middle">98</text><text x="20" y="730" style="font-size:14px;fill:black;font-family:Arial" text-anchor="middle">-98</text><text x="20" y="230" style="font-size:14px;fill:black;font-family:Arial" text-anchor="middle">49</text><text x="20" y="570" style="font-size:14px;fill:black;font-family:Arial" text-anchor="middle">-49</text><text x="90.0" y="406" style="font-size:14px;fill:black;font-family:Arial" text-anchor="middle">0</text><path style="fill:none;fill-rule:evenodd;stroke:#000000;stroke-width:1px;stroke-linecap:butt;stroke-linejoin:miter;stroke-opacity:1" d="M  129.0,391 L 129.0,410"/><text x="170.0" y="406" style="font-size:14px;fill:black;font-family:Arial" text-anchor="middle">1</text><path style="fill:none;fill-rule:evenodd;stroke:#000000;stroke-width:1px;stroke-linecap:butt;stroke-linejoin:miter;stroke-opacity:1" d="M  209.0,391 L 209.0,410"/><text x="250.0" y="406" style="font-size:14px;fill:black;font-family:Arial" text-anchor="middle">2</text><path style="fill:none;fill-rule:evenodd;stroke:#000000;stroke-width:1px;stroke-linecap:butt;stroke-linejoin:miter;stroke-opacity:1" d="M  289.0,391 L 289.0,410"/><text x="330.0" y="406" style="font-size:14px;fill:black;font-family:Arial" text-anchor="middle">3</text><path style="fill:none;fill-rule:evenodd;stroke:#000000;stroke-width:1px;stroke-linecap:butt;stroke-linejoin:miter;stroke-opacity:1" d="M  369.0,391 L 369.0,410"/><text x="410.0" y="406" style="font-size:14px;fill:black;font-family:Arial" text-anchor="middle">4</text><path style="fill:none;fill-rule:evenodd;stroke:#000000;stroke-width:1px;stroke-linecap:butt;stroke-linejoin:miter;stroke-opacity:1" d="M  449.0,391 L 449.0,410"/><rect x="49" width="1" y="50" height="700" style="fill:black"/><rect x="49" width="400.0" y="391" height="1" style="fill:black"/><rect x="49" width="400.0" y="410" height="1" style="fill:black"/><path style="fill:none;fill-rule:evenodd;stroke:#000000;stroke-width:1px;stroke-linecap:butt;stroke-linejoin:miter;stroke-opacity:1" d="M  44.5,54 L 49.5,50 L 54.5,54"/><path style="fill:none;fill-rule:evenodd;stroke:#000000;stroke-width:1px;stroke-linecap:butt;stroke-linejoin:miter;stroke-opacity:1" d="M 44.5,746 L 49.5,750 L 54.5,746"/><path style="fill:none;fill-rule:evenodd;stroke:#000000;stroke-width:1px;stroke-linecap:butt;stroke-linejoin:miter;stroke-opacity:1" d="M  49,70 L 44,70 L 44,70"/><path style="fill:none;fill-rule:evenodd;stroke:#000000;stroke-width:1px;stroke-linecap:butt;stroke-linejoin:miter;stroke-opacity:1" d="M  49,230 L 44,230"/><path style="fill:none;fill-rule:evenodd;stroke:#000000;stroke-width:1px;stroke-linecap:butt;stroke-linejoin:miter;stroke-opacity:1" d="M  49,730 L 44,730"/><path style="fill:none;fill-rule:evenodd;stroke:#000000;stroke-width:1px;stroke-linecap:butt;stroke-linejoin:miter;stroke-opacity:1" d="M  49,570 L 44,570"/><text x="-400" y="15" style="font-size:14px;fill:black;font-family:Arial" transform="matrix(0,-1,1,0,0,0)" text-anchor="middle">P value = 0.05</text><text x="-400" y="35" style="font-size:14px;fill:black;font-family:Arial" transform="matrix(0,-1,1,0,0,0)" text-anchor="middle">% difference</text><text x="9.31915125" y="387.0" style="font-size:3px;fill:rgb(142,0,222);font-family:Arial" transform="scale(9.65753184872925,1.0)" text-anchor="middle">M</text><text x="12.425535" y="380.0" style="font-size:6px;fill:rgb(161,198,0);font-family:Arial" transform="scale(7.243148886546938,1.0)" text-anchor="middle">K</text><text x="809.7306975" y="387.0" style="font-size:408px;fill:rgb(0,191,3);font-family:Arial" transform="scale(0.2099463445375924,1.0)" text-anchor="middle">D</text><text x="31.639093749999997" y="387.0" style="font-size:5px;fill:rgb(122,197,0);font-family:Arial" transform="scale(7.901616967142115,1.0)" text-anchor="middle">E</text><text x="34.170221250000004" y="387.0" style="font-size:3px;fill:rgb(14,0,228);font-family:Arial" transform="scale(9.65753184872925,1.0)" text-anchor="middle">I</text><text x="89.62492375000001" y="387.0" style="font-size:13px;fill:rgb(161,198,0);font-family:Arial" transform="scale(4.5746203493980655,1.0)" text-anchor="middle">K</text><text x="15.531918749999997" y="421.0" style="font-size:9px;fill:rgb(0,191,3);font-family:Arial" transform="scale(5.794519109237551,1.0)" text-anchor="middle">D</text><text x="21.514583749999996" y="418.0" style="font-size:5px;fill:pink;background-color:black;font-family:Arial" transform="scale(7.901616967142115,1.0)" text-anchor="middle">H</text><text x="21.514583749999996" y="426.0" style="font-size:5px;fill:pink;background-color:black;font-family:Arial" transform="scale(7.901616967142115,1.0)" text-anchor="middle">Y</text><text x="29.338068749999994" y="437.0" style="font-size:9px;fill:pink;background-color:black;font-family:Arial" transform="scale(5.794519109237551,1.0)" text-anchor="middle">N</text><text x="29.338068749999994" y="448.0" style="font-size:9px;fill:rgb(204,112,0);font-family:Arial" transform="scale(5.794519109237551,1.0)" text-anchor="middle">F</text><text x="35.2056825" y="461.0" style="font-size:12px;fill:rgb(14,0,228);font-family:Arial" transform="scale(4.828765924364625,1.0)" text-anchor="middle">I</text><text x="39.117425000000004" y="476.0" style="font-size:14px;fill:rgb(202,162,0);font-family:Arial" transform="scale(4.345889331928162,1.0)" text-anchor="middle">Q</text><text x="43.02916749999999" y="492.0" style="font-size:16px;fill:rgb(209,8,0);font-family:Arial" transform="scale(3.9508084835710573,1.0)" text-anchor="middle">T</text><text x="43.02916749999999" y="508.0" style="font-size:16px;fill:rgb(201,187,0);font-family:Arial" transform="scale(3.9508084835710573,1.0)" text-anchor="middle">R</text><text x="44.98503875" y="525.0" style="font-size:17px;fill:rgb(161,198,0);font-family:Arial" transform="scale(3.779034201676663,1.0)" text-anchor="middle">K</text><text x="48.89678125" y="543.0" style="font-size:19px;fill:rgb(128,0,223);font-family:Arial" transform="scale(3.47671146554253,1.0)" text-anchor="middle">V</text><text x="48.89678125" y="561.0" style="font-size:19px;fill:rgb(33,192,0);font-family:Arial" transform="scale(3.47671146554253,1.0)" text-anchor="middle">P</text><text x="52.80852375" y="581.0" style="font-size:21px;fill:rgb(206,74,0);font-family:Arial" transform="scale(3.21917728290975,1.0)" text-anchor="middle">G</text><text x="56.720266249999995" y="602.0" style="font-size:23px;fill:rgb(214,0,100);font-family:Arial" transform="scale(2.9971650565021815,1.0)" text-anchor="middle">A</text><text x="58.67613749999999" y="624.0" style="font-size:24px;fill:rgb(122,197,0);font-family:Arial" transform="scale(2.8972595546187754,1.0)" text-anchor="middle">E</text><text x="70.411365" y="650.0" style="font-size:30px;fill:rgb(209,21,0);font-family:Arial" transform="scale(2.4143829621823123,1.0)" text-anchor="middle">S</text><text x="84.10246375" y="681.0" style="font-size:37px;fill:rgb(14,0,228);font-family:Arial" transform="scale(2.0213438753154245,1.0)" text-anchor="middle">L</text><text x="25.88653125" y="417.0" style="font-size:3px;fill:rgb(209,21,0);font-family:Arial" transform="scale(9.65753184872925,1.0)" text-anchor="middle">S</text><text x="49.35698625" y="420.0" style="font-size:7px;fill:rgb(0,191,3);font-family:Arial" transform="scale(6.685983587581789,1.0)" text-anchor="middle">D</text><text x="42.453911250000004" y="417.0" style="font-size:3px;fill:rgb(209,21,0);font-family:Arial" transform="scale(9.65753184872925,1.0)" text-anchor="middle">S</text><text x="84.90782250000001" y="430.0" style="font-size:12px;fill:rgb(0,191,3);font-family:Arial" transform="scale(4.828765924364625,1.0)" text-anchor="middle">D</text></svg>